<mxfile host="app.diagrams.net" modified="2024-02-25T18:39:23.802Z" agent="Mozilla/5.0 (Windows NT 10.0; Win64; x64; rv:123.0) Gecko/20100101 Firefox/123.0" version="23.1.6" etag="S8l0tidDjLBc105YWreO" type="github">
  <diagram name="Page-1" id="a0HBu4hfeHAr-n2_G1n9">
    <mxGraphModel>
      <root>
        <mxCell id="0" />
        <mxCell id="1" parent="0" />
      </root>
    </mxGraphModel>
  </diagram>
</mxfile>
